<?xml version="1.0" standalone="no"?>
<!DOCTYPE svg PUBLIC "-//W3C//DTD SVG 20010904//EN"
 "http://www.w3.org/TR/2001/REC-SVG-20010904/DTD/svg10.dtd">
<svg version="1.0" xmlns="http://www.w3.org/2000/svg"
 width="512.000000pt" height="512.000000pt" viewBox="0 0 512.000000 512.000000"
 preserveAspectRatio="xMidYMid meet">

<g transform="translate(0.000000,512.000000) scale(0.100000,-0.100000)"
fill="#000000" stroke="none">
<path d="M2560 3823 c0 -376 1 -396 17 -373 9 14 43 57 75 97 l58 71 0 301 0
301 -75 0 -75 0 0 -397z"/>
<path d="M2560 1960 l0 -760 75 0 75 0 0 300 c0 165 2 300 5 300 4 0 259 -188
342 -252 15 -12 186 212 173 227 -5 5 -124 96 -264 200 l-255 190 -1 278 0
277 -75 0 -75 0 0 -760z"/>
<path d="M0 675 l0 -675 2560 0 2560 0 0 675 0 675 -849 0 -849 0 -52 -65
c-227 -285 -626 -434 -993 -370 -247 43 -496 192 -644 386 l-37 49 -848 0
-848 0 0 -675z"/>
</g>
</svg>
